<svg width="123" height="123" viewBox="0 0 123 123" fill="none" xmlns="http://www.w3.org/2000/svg">
<circle cx="61.5" cy="61.5" r="61.5" fill="#79A206"/>
<path d="M45.794 36.8891V84.8076H53.5238V85H39.2188V84.8076H45.6015V37.0816H39.2188V36.8891H45.794ZM83.8336 36.8891V37.0816H77.0981V85.6415H76.8736L45.6657 36.8891H53.0106L76.9057 75.2495V37.0816H69.24V36.8891H83.8336Z" fill="white"/>
<path d="M45.794 36.8891H46.794V35.8891H45.794V36.8891ZM45.794 84.8076H44.794V85.8076H45.794V84.8076ZM53.5238 84.8076H54.5238V83.8076H53.5238V84.8076ZM53.5238 85V86H54.5238V85H53.5238ZM39.2188 85H38.2188V86H39.2188V85ZM39.2188 84.8076V83.8076H38.2188V84.8076H39.2188ZM45.6015 84.8076V85.8076H46.6015V84.8076H45.6015ZM45.6015 37.0816H46.6015V36.0816H45.6015V37.0816ZM39.2188 37.0816H38.2188V38.0816H39.2188V37.0816ZM39.2188 36.8891V35.8891H38.2188V36.8891H39.2188ZM83.8336 36.8891H84.8336V35.8891H83.8336V36.8891ZM83.8336 37.0816V38.0816H84.8336V37.0816H83.8336ZM77.0981 37.0816V36.0816H76.0981V37.0816H77.0981ZM77.0981 85.6415V86.6415H78.0981V85.6415H77.0981ZM76.8736 85.6415L76.0314 86.1806L76.3264 86.6415H76.8736V85.6415ZM45.6657 36.8891V35.8891H43.8382L44.8234 37.4283L45.6657 36.8891ZM53.0106 36.8891L53.8594 36.3604L53.5658 35.8891H53.0106V36.8891ZM76.9057 75.2495L76.0569 75.7783L77.9057 78.7463V75.2495H76.9057ZM76.9057 37.0816H77.9057V36.0816H76.9057V37.0816ZM69.24 37.0816H68.24V38.0816H69.24V37.0816ZM69.24 36.8891V35.8891H68.24V36.8891H69.24ZM44.794 36.8891V84.8076H46.794V36.8891H44.794ZM45.794 85.8076H53.5238V83.8076H45.794V85.8076ZM52.5238 84.8076V85H54.5238V84.8076H52.5238ZM53.5238 84H39.2188V86H53.5238V84ZM40.2188 85V84.8076H38.2188V85H40.2188ZM39.2188 85.8076H45.6015V83.8076H39.2188V85.8076ZM46.6015 84.8076V37.0816H44.6015V84.8076H46.6015ZM45.6015 36.0816H39.2188V38.0816H45.6015V36.0816ZM40.2188 37.0816V36.8891H38.2188V37.0816H40.2188ZM39.2188 37.8891H45.794V35.8891H39.2188V37.8891ZM82.8336 36.8891V37.0816H84.8336V36.8891H82.8336ZM83.8336 36.0816H77.0981V38.0816H83.8336V36.0816ZM76.0981 37.0816V85.6415H78.0981V37.0816H76.0981ZM77.0981 84.6415H76.8736V86.6415H77.0981V84.6415ZM77.7158 85.1023L46.5079 36.35L44.8234 37.4283L76.0314 86.1806L77.7158 85.1023ZM45.6657 37.8891H53.0106V35.8891H45.6657V37.8891ZM52.1618 37.4178L76.0569 75.7783L77.7545 74.7208L53.8594 36.3604L52.1618 37.4178ZM77.9057 75.2495V37.0816H75.9057V75.2495H77.9057ZM76.9057 36.0816H69.24V38.0816H76.9057V36.0816ZM70.24 37.0816V36.8891H68.24V37.0816H70.24ZM69.24 37.8891H83.8336V35.8891H69.24V37.8891Z" fill="white"/>
</svg>
